# xmcd CD database file
#
# Track frame offsets:
#	150
#	23757
#	48052
#	78815
#	106377
#	126895
#	145842
#	169298
#	200099
#	229850
#
# Disc length: 3334 seconds
#
# Revision: 0
# Processed by: cddbd v1.5.2PL0 Copyright (c) Steve Scherf et al.
# Submitted via: CDex 1.51
#
DISCID=7f0d040a
DTITLE=egba - The Phoenix
DYEAR=2004
DGENRE=Jazz
TTITLE0=Kaufmann shake
TTITLE1=SMHI
TTITLE2=Elektra
TTITLE3=Clean Harry
TTITLE4=Actual fact
TTITLE5=The Phoenix
TTITLE6=Kea
TTITLE7=Miss Dirty
TTITLE8=Stockhome
TTITLE9=Flying carpet
EXTD=YEAR: 2004
EXTT0=
EXTT1=
EXTT2=
EXTT3=
EXTT4=
EXTT5=
EXTT6=
EXTT7=
EXTT8=
EXTT9=
PLAYORDER=
